G04*
G04 #@! TF.GenerationSoftware,Altium Limited,Altium Designer,20.0.13 (296)*
G04*
G04 Layer_Color=255*
%FSLAX25Y25*%
%MOIN*%
G70*
G01*
G75*
%ADD18R,0.01575X0.01968*%
G04:AMPARAMS|DCode=19|XSize=20mil|YSize=20mil|CornerRadius=5mil|HoleSize=0mil|Usage=FLASHONLY|Rotation=90.000|XOffset=0mil|YOffset=0mil|HoleType=Round|Shape=RoundedRectangle|*
%AMROUNDEDRECTD19*
21,1,0.02000,0.01000,0,0,90.0*
21,1,0.01000,0.02000,0,0,90.0*
1,1,0.01000,0.00500,0.00500*
1,1,0.01000,0.00500,-0.00500*
1,1,0.01000,-0.00500,-0.00500*
1,1,0.01000,-0.00500,0.00500*
%
%ADD19ROUNDEDRECTD19*%
G04:AMPARAMS|DCode=20|XSize=20mil|YSize=20mil|CornerRadius=5mil|HoleSize=0mil|Usage=FLASHONLY|Rotation=0.000|XOffset=0mil|YOffset=0mil|HoleType=Round|Shape=RoundedRectangle|*
%AMROUNDEDRECTD20*
21,1,0.02000,0.01000,0,0,0.0*
21,1,0.01000,0.02000,0,0,0.0*
1,1,0.01000,0.00500,-0.00500*
1,1,0.01000,-0.00500,-0.00500*
1,1,0.01000,-0.00500,0.00500*
1,1,0.01000,0.00500,0.00500*
%
%ADD20ROUNDEDRECTD20*%
%ADD21R,0.03937X0.02756*%
%ADD22O,0.00984X0.02756*%
%ADD23O,0.02756X0.00984*%
%ADD24R,0.10630X0.11024*%
G04:AMPARAMS|DCode=25|XSize=160mil|YSize=160mil|CornerRadius=16mil|HoleSize=0mil|Usage=FLASHONLY|Rotation=270.000|XOffset=0mil|YOffset=0mil|HoleType=Round|Shape=RoundedRectangle|*
%AMROUNDEDRECTD25*
21,1,0.16000,0.12800,0,0,270.0*
21,1,0.12800,0.16000,0,0,270.0*
1,1,0.03200,-0.06400,-0.06400*
1,1,0.03200,-0.06400,0.06400*
1,1,0.03200,0.06400,0.06400*
1,1,0.03200,0.06400,-0.06400*
%
%ADD25ROUNDEDRECTD25*%
G04:AMPARAMS|DCode=26|XSize=26.57mil|YSize=9.84mil|CornerRadius=2.46mil|HoleSize=0mil|Usage=FLASHONLY|Rotation=270.000|XOffset=0mil|YOffset=0mil|HoleType=Round|Shape=RoundedRectangle|*
%AMROUNDEDRECTD26*
21,1,0.02657,0.00492,0,0,270.0*
21,1,0.02165,0.00984,0,0,270.0*
1,1,0.00492,-0.00246,-0.01083*
1,1,0.00492,-0.00246,0.01083*
1,1,0.00492,0.00246,0.01083*
1,1,0.00492,0.00246,-0.01083*
%
%ADD26ROUNDEDRECTD26*%
G04:AMPARAMS|DCode=27|XSize=26.57mil|YSize=9.84mil|CornerRadius=2.46mil|HoleSize=0mil|Usage=FLASHONLY|Rotation=0.000|XOffset=0mil|YOffset=0mil|HoleType=Round|Shape=RoundedRectangle|*
%AMROUNDEDRECTD27*
21,1,0.02657,0.00492,0,0,0.0*
21,1,0.02165,0.00984,0,0,0.0*
1,1,0.00492,0.01083,-0.00246*
1,1,0.00492,-0.01083,-0.00246*
1,1,0.00492,-0.01083,0.00246*
1,1,0.00492,0.01083,0.00246*
%
%ADD27ROUNDEDRECTD27*%
G04:AMPARAMS|DCode=28|XSize=37.4mil|YSize=39.37mil|CornerRadius=9.35mil|HoleSize=0mil|Usage=FLASHONLY|Rotation=180.000|XOffset=0mil|YOffset=0mil|HoleType=Round|Shape=RoundedRectangle|*
%AMROUNDEDRECTD28*
21,1,0.03740,0.02067,0,0,180.0*
21,1,0.01870,0.03937,0,0,180.0*
1,1,0.01870,-0.00935,0.01034*
1,1,0.01870,0.00935,0.01034*
1,1,0.01870,0.00935,-0.01034*
1,1,0.01870,-0.00935,-0.01034*
%
%ADD28ROUNDEDRECTD28*%
G04:AMPARAMS|DCode=29|XSize=15.75mil|YSize=137.8mil|CornerRadius=3.94mil|HoleSize=0mil|Usage=FLASHONLY|Rotation=270.000|XOffset=0mil|YOffset=0mil|HoleType=Round|Shape=RoundedRectangle|*
%AMROUNDEDRECTD29*
21,1,0.01575,0.12992,0,0,270.0*
21,1,0.00787,0.13780,0,0,270.0*
1,1,0.00787,-0.06496,-0.00394*
1,1,0.00787,-0.06496,0.00394*
1,1,0.00787,0.06496,0.00394*
1,1,0.00787,0.06496,-0.00394*
%
%ADD29ROUNDEDRECTD29*%
G04:AMPARAMS|DCode=30|XSize=12mil|YSize=38mil|CornerRadius=3mil|HoleSize=0mil|Usage=FLASHONLY|Rotation=0.000|XOffset=0mil|YOffset=0mil|HoleType=Round|Shape=RoundedRectangle|*
%AMROUNDEDRECTD30*
21,1,0.01200,0.03200,0,0,0.0*
21,1,0.00600,0.03800,0,0,0.0*
1,1,0.00600,0.00300,-0.01600*
1,1,0.00600,-0.00300,-0.01600*
1,1,0.00600,-0.00300,0.01600*
1,1,0.00600,0.00300,0.01600*
%
%ADD30ROUNDEDRECTD30*%
G04:AMPARAMS|DCode=31|XSize=12mil|YSize=38mil|CornerRadius=3mil|HoleSize=0mil|Usage=FLASHONLY|Rotation=90.000|XOffset=0mil|YOffset=0mil|HoleType=Round|Shape=RoundedRectangle|*
%AMROUNDEDRECTD31*
21,1,0.01200,0.03200,0,0,90.0*
21,1,0.00600,0.03800,0,0,90.0*
1,1,0.00600,0.01600,0.00300*
1,1,0.00600,0.01600,-0.00300*
1,1,0.00600,-0.01600,-0.00300*
1,1,0.00600,-0.01600,0.00300*
%
%ADD31ROUNDEDRECTD31*%
G04:AMPARAMS|DCode=32|XSize=23.62mil|YSize=35mil|CornerRadius=5.91mil|HoleSize=0mil|Usage=FLASHONLY|Rotation=90.000|XOffset=0mil|YOffset=0mil|HoleType=Round|Shape=RoundedRectangle|*
%AMROUNDEDRECTD32*
21,1,0.02362,0.02319,0,0,90.0*
21,1,0.01181,0.03500,0,0,90.0*
1,1,0.01181,0.01159,0.00591*
1,1,0.01181,0.01159,-0.00591*
1,1,0.01181,-0.01159,-0.00591*
1,1,0.01181,-0.01159,0.00591*
%
%ADD32ROUNDEDRECTD32*%
G04:AMPARAMS|DCode=33|XSize=31.5mil|YSize=70.87mil|CornerRadius=7.87mil|HoleSize=0mil|Usage=FLASHONLY|Rotation=270.000|XOffset=0mil|YOffset=0mil|HoleType=Round|Shape=RoundedRectangle|*
%AMROUNDEDRECTD33*
21,1,0.03150,0.05512,0,0,270.0*
21,1,0.01575,0.07087,0,0,270.0*
1,1,0.01575,-0.02756,-0.00787*
1,1,0.01575,-0.02756,0.00787*
1,1,0.01575,0.02756,0.00787*
1,1,0.01575,0.02756,-0.00787*
%
%ADD33ROUNDEDRECTD33*%
G04:AMPARAMS|DCode=34|XSize=59.06mil|YSize=11.81mil|CornerRadius=2.95mil|HoleSize=0mil|Usage=FLASHONLY|Rotation=0.000|XOffset=0mil|YOffset=0mil|HoleType=Round|Shape=RoundedRectangle|*
%AMROUNDEDRECTD34*
21,1,0.05906,0.00591,0,0,0.0*
21,1,0.05315,0.01181,0,0,0.0*
1,1,0.00591,0.02657,-0.00295*
1,1,0.00591,-0.02657,-0.00295*
1,1,0.00591,-0.02657,0.00295*
1,1,0.00591,0.02657,0.00295*
%
%ADD34ROUNDEDRECTD34*%
%ADD61C,0.11811*%
%ADD62R,0.06693X0.06693*%
%ADD63C,0.06693*%
%ADD64C,0.03937*%
%ADD65O,0.08268X0.03937*%
%ADD66O,0.06299X0.03937*%
%ADD67C,0.02559*%
D18*
X31827Y33500D02*
D03*
X35173D02*
D03*
Y45500D02*
D03*
X31827D02*
D03*
X152173Y69500D02*
D03*
X148827D02*
D03*
X-673Y14500D02*
D03*
X2673D02*
D03*
X54327Y35000D02*
D03*
X57673D02*
D03*
X43673D02*
D03*
X40327D02*
D03*
X142673Y58500D02*
D03*
X139327D02*
D03*
X161673Y69500D02*
D03*
X158327D02*
D03*
X56173Y66000D02*
D03*
X52827D02*
D03*
D19*
X19600Y11000D02*
D03*
X15600D02*
D03*
X19600Y14999D02*
D03*
X15600D02*
D03*
X158000Y58500D02*
D03*
X162000D02*
D03*
X148500Y58500D02*
D03*
X152500D02*
D03*
X139191Y69500D02*
D03*
X143191D02*
D03*
X115500Y24000D02*
D03*
X119500D02*
D03*
X73000Y26964D02*
D03*
X69000D02*
D03*
X73000Y30464D02*
D03*
X69000D02*
D03*
X73000Y33964D02*
D03*
X69000D02*
D03*
X73000Y37464D02*
D03*
X69000D02*
D03*
X73000Y40964D02*
D03*
X69000D02*
D03*
X73000Y44464D02*
D03*
X69000D02*
D03*
X73000Y47964D02*
D03*
X69000D02*
D03*
X73000Y51964D02*
D03*
X69000D02*
D03*
X21734Y63000D02*
D03*
X17734D02*
D03*
X174500Y69500D02*
D03*
X170500D02*
D03*
X7600Y11000D02*
D03*
X11600D02*
D03*
X7600Y14999D02*
D03*
X11600D02*
D03*
D20*
X131500Y31000D02*
D03*
Y35000D02*
D03*
X104500Y35500D02*
D03*
Y31500D02*
D03*
X104500Y44000D02*
D03*
Y40000D02*
D03*
X22500Y67000D02*
D03*
Y71000D02*
D03*
X18000D02*
D03*
Y67000D02*
D03*
D21*
X179535Y19232D02*
D03*
X196465D02*
D03*
X179535Y10768D02*
D03*
X196465D02*
D03*
X180035Y69232D02*
D03*
X196965D02*
D03*
X180035Y60768D02*
D03*
X196965D02*
D03*
D22*
X122421Y45768D02*
D03*
X120453D02*
D03*
X118484D02*
D03*
X116516D02*
D03*
X114547D02*
D03*
X112579D02*
D03*
Y29232D02*
D03*
X114547D02*
D03*
X116516D02*
D03*
X118484D02*
D03*
X120453D02*
D03*
X122421D02*
D03*
D23*
X109232Y42421D02*
D03*
Y40453D02*
D03*
Y38484D02*
D03*
Y36516D02*
D03*
Y34547D02*
D03*
Y32579D02*
D03*
X125768D02*
D03*
Y34547D02*
D03*
Y36516D02*
D03*
Y38484D02*
D03*
Y40453D02*
D03*
Y42421D02*
D03*
D24*
X117500Y37500D02*
D03*
X49500Y51500D02*
D03*
D25*
X151500Y37500D02*
D03*
D26*
X162327Y50738D02*
D03*
X160358D02*
D03*
X158390D02*
D03*
X156421D02*
D03*
X154453D02*
D03*
X152484D02*
D03*
X150516D02*
D03*
X148547D02*
D03*
X146579D02*
D03*
X144610D02*
D03*
X142642D02*
D03*
X140673D02*
D03*
Y24262D02*
D03*
X142642D02*
D03*
X144610D02*
D03*
X146579D02*
D03*
X148547D02*
D03*
X150516D02*
D03*
X152484D02*
D03*
X154453D02*
D03*
X156421D02*
D03*
X158390D02*
D03*
X160358D02*
D03*
X162327D02*
D03*
D27*
X138262Y48327D02*
D03*
Y46358D02*
D03*
Y44390D02*
D03*
Y42421D02*
D03*
Y40453D02*
D03*
Y38484D02*
D03*
Y36516D02*
D03*
Y34547D02*
D03*
Y32579D02*
D03*
Y30610D02*
D03*
Y28642D02*
D03*
Y26673D02*
D03*
X164738D02*
D03*
Y28642D02*
D03*
Y30610D02*
D03*
Y32579D02*
D03*
Y34547D02*
D03*
Y36516D02*
D03*
Y38484D02*
D03*
Y40453D02*
D03*
Y42421D02*
D03*
Y44390D02*
D03*
Y46358D02*
D03*
Y48327D02*
D03*
D28*
X42260Y20142D02*
D03*
X38520Y29000D02*
D03*
X46000D02*
D03*
X55740Y20142D02*
D03*
X52000Y29000D02*
D03*
X59480D02*
D03*
D29*
X93500Y48232D02*
D03*
Y39965D02*
D03*
Y31697D02*
D03*
Y23429D02*
D03*
Y56500D02*
D03*
Y28941D02*
D03*
Y26185D02*
D03*
Y37209D02*
D03*
Y34453D02*
D03*
Y45476D02*
D03*
Y42720D02*
D03*
Y53744D02*
D03*
Y50988D02*
D03*
D30*
X55405Y42350D02*
D03*
X53437D02*
D03*
X51468D02*
D03*
X49500D02*
D03*
X47532D02*
D03*
X45563D02*
D03*
X43595D02*
D03*
Y60650D02*
D03*
X45563D02*
D03*
X47532D02*
D03*
X49500D02*
D03*
X51468D02*
D03*
X53437D02*
D03*
X55405D02*
D03*
D31*
X40350Y45594D02*
D03*
Y47563D02*
D03*
Y49531D02*
D03*
Y51500D02*
D03*
Y53469D02*
D03*
Y55437D02*
D03*
Y57406D02*
D03*
X58650D02*
D03*
Y55437D02*
D03*
Y53469D02*
D03*
Y51500D02*
D03*
Y49531D02*
D03*
Y47563D02*
D03*
Y45594D02*
D03*
D32*
X594Y63260D02*
D03*
Y67000D02*
D03*
Y70740D02*
D03*
X11994D02*
D03*
Y63260D02*
D03*
D33*
X193000Y29910D02*
D03*
Y50000D02*
D03*
D34*
X23421Y53689D02*
D03*
Y52508D02*
D03*
Y50539D02*
D03*
Y49358D02*
D03*
Y47390D02*
D03*
Y45421D02*
D03*
Y43453D02*
D03*
Y41484D02*
D03*
Y39516D02*
D03*
Y37547D02*
D03*
Y35579D02*
D03*
Y33610D02*
D03*
Y31642D02*
D03*
Y30461D02*
D03*
Y28492D02*
D03*
Y27311D02*
D03*
D61*
X192913Y80709D02*
D03*
Y0D02*
D03*
X0D02*
D03*
Y80709D02*
D03*
D62*
X181500Y80000D02*
D03*
X181000Y500D02*
D03*
D63*
X171500Y80000D02*
D03*
X161500D02*
D03*
X151500D02*
D03*
X141500D02*
D03*
X131500D02*
D03*
X121500D02*
D03*
X111500D02*
D03*
X101500D02*
D03*
X91500D02*
D03*
X81500D02*
D03*
X71500D02*
D03*
X61500D02*
D03*
X51500D02*
D03*
X41500D02*
D03*
X31500D02*
D03*
X21500D02*
D03*
X11500D02*
D03*
X11000Y500D02*
D03*
X21000D02*
D03*
X31000D02*
D03*
X41000D02*
D03*
X51000D02*
D03*
X61000D02*
D03*
X71000D02*
D03*
X81000D02*
D03*
X91000D02*
D03*
X101000D02*
D03*
X111000D02*
D03*
X121000D02*
D03*
X131000D02*
D03*
X141000D02*
D03*
X151000D02*
D03*
X161000D02*
D03*
X171000D02*
D03*
D64*
X169500Y59000D02*
D03*
Y27504D02*
D03*
D65*
X19327Y57528D02*
D03*
Y23472D02*
D03*
D66*
X3579Y57528D02*
D03*
Y23472D02*
D03*
D67*
X17358Y29122D02*
D03*
Y51878D02*
D03*
M02*
