G04*
G04 #@! TF.GenerationSoftware,Altium Limited,Altium Designer,20.0.13 (296)*
G04*
G04 Layer_Color=8388736*
%FSLAX25Y25*%
%MOIN*%
G70*
G01*
G75*
%ADD35R,0.22500X0.31000*%
%ADD36R,0.02175X0.02568*%
G04:AMPARAMS|DCode=37|XSize=26mil|YSize=26mil|CornerRadius=8mil|HoleSize=0mil|Usage=FLASHONLY|Rotation=90.000|XOffset=0mil|YOffset=0mil|HoleType=Round|Shape=RoundedRectangle|*
%AMROUNDEDRECTD37*
21,1,0.02600,0.01000,0,0,90.0*
21,1,0.01000,0.02600,0,0,90.0*
1,1,0.01600,0.00500,0.00500*
1,1,0.01600,0.00500,-0.00500*
1,1,0.01600,-0.00500,-0.00500*
1,1,0.01600,-0.00500,0.00500*
%
%ADD37ROUNDEDRECTD37*%
G04:AMPARAMS|DCode=38|XSize=26mil|YSize=26mil|CornerRadius=8mil|HoleSize=0mil|Usage=FLASHONLY|Rotation=0.000|XOffset=0mil|YOffset=0mil|HoleType=Round|Shape=RoundedRectangle|*
%AMROUNDEDRECTD38*
21,1,0.02600,0.01000,0,0,0.0*
21,1,0.01000,0.02600,0,0,0.0*
1,1,0.01600,0.00500,-0.00500*
1,1,0.01600,-0.00500,-0.00500*
1,1,0.01600,-0.00500,0.00500*
1,1,0.01600,0.00500,0.00500*
%
%ADD38ROUNDEDRECTD38*%
%ADD39R,0.04537X0.03356*%
%ADD40O,0.01584X0.03356*%
%ADD41O,0.03356X0.01584*%
%ADD42R,0.11230X0.11624*%
G04:AMPARAMS|DCode=43|XSize=166mil|YSize=166mil|CornerRadius=19mil|HoleSize=0mil|Usage=FLASHONLY|Rotation=270.000|XOffset=0mil|YOffset=0mil|HoleType=Round|Shape=RoundedRectangle|*
%AMROUNDEDRECTD43*
21,1,0.16600,0.12800,0,0,270.0*
21,1,0.12800,0.16600,0,0,270.0*
1,1,0.03800,-0.06400,-0.06400*
1,1,0.03800,-0.06400,0.06400*
1,1,0.03800,0.06400,0.06400*
1,1,0.03800,0.06400,-0.06400*
%
%ADD43ROUNDEDRECTD43*%
G04:AMPARAMS|DCode=44|XSize=32.58mil|YSize=15.84mil|CornerRadius=5.46mil|HoleSize=0mil|Usage=FLASHONLY|Rotation=270.000|XOffset=0mil|YOffset=0mil|HoleType=Round|Shape=RoundedRectangle|*
%AMROUNDEDRECTD44*
21,1,0.03258,0.00492,0,0,270.0*
21,1,0.02165,0.01584,0,0,270.0*
1,1,0.01092,-0.00246,-0.01083*
1,1,0.01092,-0.00246,0.01083*
1,1,0.01092,0.00246,0.01083*
1,1,0.01092,0.00246,-0.01083*
%
%ADD44ROUNDEDRECTD44*%
G04:AMPARAMS|DCode=45|XSize=32.58mil|YSize=15.84mil|CornerRadius=5.46mil|HoleSize=0mil|Usage=FLASHONLY|Rotation=0.000|XOffset=0mil|YOffset=0mil|HoleType=Round|Shape=RoundedRectangle|*
%AMROUNDEDRECTD45*
21,1,0.03258,0.00492,0,0,0.0*
21,1,0.02165,0.01584,0,0,0.0*
1,1,0.01092,0.01083,-0.00246*
1,1,0.01092,-0.01083,-0.00246*
1,1,0.01092,-0.01083,0.00246*
1,1,0.01092,0.01083,0.00246*
%
%ADD45ROUNDEDRECTD45*%
G04:AMPARAMS|DCode=46|XSize=43.4mil|YSize=45.37mil|CornerRadius=12.35mil|HoleSize=0mil|Usage=FLASHONLY|Rotation=180.000|XOffset=0mil|YOffset=0mil|HoleType=Round|Shape=RoundedRectangle|*
%AMROUNDEDRECTD46*
21,1,0.04340,0.02067,0,0,180.0*
21,1,0.01870,0.04537,0,0,180.0*
1,1,0.02470,-0.00935,0.01034*
1,1,0.02470,0.00935,0.01034*
1,1,0.02470,0.00935,-0.01034*
1,1,0.02470,-0.00935,-0.01034*
%
%ADD46ROUNDEDRECTD46*%
G04:AMPARAMS|DCode=47|XSize=21.75mil|YSize=143.79mil|CornerRadius=6.94mil|HoleSize=0mil|Usage=FLASHONLY|Rotation=270.000|XOffset=0mil|YOffset=0mil|HoleType=Round|Shape=RoundedRectangle|*
%AMROUNDEDRECTD47*
21,1,0.02175,0.12992,0,0,270.0*
21,1,0.00787,0.14379,0,0,270.0*
1,1,0.01387,-0.06496,-0.00394*
1,1,0.01387,-0.06496,0.00394*
1,1,0.01387,0.06496,0.00394*
1,1,0.01387,0.06496,-0.00394*
%
%ADD47ROUNDEDRECTD47*%
G04:AMPARAMS|DCode=48|XSize=22mil|YSize=48mil|CornerRadius=8mil|HoleSize=0mil|Usage=FLASHONLY|Rotation=0.000|XOffset=0mil|YOffset=0mil|HoleType=Round|Shape=RoundedRectangle|*
%AMROUNDEDRECTD48*
21,1,0.02200,0.03200,0,0,0.0*
21,1,0.00600,0.04800,0,0,0.0*
1,1,0.01600,0.00300,-0.01600*
1,1,0.01600,-0.00300,-0.01600*
1,1,0.01600,-0.00300,0.01600*
1,1,0.01600,0.00300,0.01600*
%
%ADD48ROUNDEDRECTD48*%
G04:AMPARAMS|DCode=49|XSize=22mil|YSize=48mil|CornerRadius=8mil|HoleSize=0mil|Usage=FLASHONLY|Rotation=90.000|XOffset=0mil|YOffset=0mil|HoleType=Round|Shape=RoundedRectangle|*
%AMROUNDEDRECTD49*
21,1,0.02200,0.03200,0,0,90.0*
21,1,0.00600,0.04800,0,0,90.0*
1,1,0.01600,0.01600,0.00300*
1,1,0.01600,0.01600,-0.00300*
1,1,0.01600,-0.01600,-0.00300*
1,1,0.01600,-0.01600,0.00300*
%
%ADD49ROUNDEDRECTD49*%
G04:AMPARAMS|DCode=50|XSize=29.62mil|YSize=41mil|CornerRadius=8.91mil|HoleSize=0mil|Usage=FLASHONLY|Rotation=90.000|XOffset=0mil|YOffset=0mil|HoleType=Round|Shape=RoundedRectangle|*
%AMROUNDEDRECTD50*
21,1,0.02962,0.02319,0,0,90.0*
21,1,0.01181,0.04100,0,0,90.0*
1,1,0.01781,0.01159,0.00591*
1,1,0.01781,0.01159,-0.00591*
1,1,0.01781,-0.01159,-0.00591*
1,1,0.01781,-0.01159,0.00591*
%
%ADD50ROUNDEDRECTD50*%
G04:AMPARAMS|DCode=51|XSize=37.5mil|YSize=76.87mil|CornerRadius=10.87mil|HoleSize=0mil|Usage=FLASHONLY|Rotation=270.000|XOffset=0mil|YOffset=0mil|HoleType=Round|Shape=RoundedRectangle|*
%AMROUNDEDRECTD51*
21,1,0.03750,0.05512,0,0,270.0*
21,1,0.01575,0.07687,0,0,270.0*
1,1,0.02175,-0.02756,-0.00787*
1,1,0.02175,-0.02756,0.00787*
1,1,0.02175,0.02756,0.00787*
1,1,0.02175,0.02756,-0.00787*
%
%ADD51ROUNDEDRECTD51*%
G04:AMPARAMS|DCode=52|XSize=65.06mil|YSize=17.81mil|CornerRadius=5.95mil|HoleSize=0mil|Usage=FLASHONLY|Rotation=0.000|XOffset=0mil|YOffset=0mil|HoleType=Round|Shape=RoundedRectangle|*
%AMROUNDEDRECTD52*
21,1,0.06506,0.00591,0,0,0.0*
21,1,0.05315,0.01781,0,0,0.0*
1,1,0.01191,0.02657,-0.00295*
1,1,0.01191,-0.02657,-0.00295*
1,1,0.01191,-0.02657,0.00295*
1,1,0.01191,0.02657,0.00295*
%
%ADD52ROUNDEDRECTD52*%
%ADD53C,0.12411*%
%ADD54R,0.07293X0.07293*%
%ADD55C,0.07293*%
%ADD56C,0.04537*%
%ADD57O,0.08868X0.04537*%
%ADD58O,0.06899X0.04537*%
%ADD59C,0.03159*%
G36*
X8158Y81116D02*
X9162Y79631D01*
X8565D01*
X7653Y81005D01*
Y81174D01*
X7594Y81094D01*
X7653Y81005D01*
Y79631D01*
X7125D01*
Y82369D01*
X7653D01*
Y81174D01*
X8532Y82369D01*
X9086D01*
X8158Y81116D01*
D02*
G37*
G36*
X12976Y80677D02*
Y79631D01*
X12448D01*
Y80674D01*
X11556Y82369D01*
X12117D01*
X12721Y81110D01*
X13331Y82369D01*
X13869D01*
X12976Y80677D01*
D02*
G37*
G36*
X11212Y81953D02*
X10113D01*
Y81225D01*
X11077D01*
Y80815D01*
X10113D01*
Y80044D01*
X11291D01*
Y79631D01*
X9588D01*
Y82369D01*
X11268D01*
X11212Y81953D01*
D02*
G37*
G36*
X62454Y82417D02*
X62493Y82414D01*
X62543Y82410D01*
X62595Y82401D01*
X62657Y82391D01*
X62726Y82378D01*
X62795Y82358D01*
X62871Y82335D01*
X62949Y82305D01*
X63028Y82269D01*
X63107Y82230D01*
X63186Y82184D01*
X63261Y82128D01*
X63333Y82066D01*
X63061Y81758D01*
X63058Y81761D01*
X63048Y81767D01*
X63031Y81781D01*
X63012Y81794D01*
X62982Y81813D01*
X62949Y81833D01*
X62913Y81853D01*
X62874Y81876D01*
X62828Y81899D01*
X62779Y81918D01*
X62726Y81938D01*
X62671Y81958D01*
X62612Y81971D01*
X62552Y81984D01*
X62490Y81991D01*
X62428Y81994D01*
X62395D01*
X62356Y81991D01*
X62310Y81984D01*
X62261Y81974D01*
X62205Y81958D01*
X62152Y81938D01*
X62103Y81912D01*
X62097Y81909D01*
X62083Y81899D01*
X62067Y81879D01*
X62044Y81856D01*
X62021Y81823D01*
X62005Y81784D01*
X61992Y81741D01*
X61985Y81689D01*
Y81686D01*
Y81672D01*
X61988Y81656D01*
X61992Y81636D01*
X61998Y81610D01*
X62005Y81584D01*
X62018Y81558D01*
X62034Y81531D01*
X62037Y81528D01*
X62044Y81521D01*
X62057Y81508D01*
X62074Y81492D01*
X62100Y81472D01*
X62129Y81453D01*
X62169Y81430D01*
X62211Y81407D01*
X62218Y81403D01*
X62234Y81397D01*
X62264Y81384D01*
X62306Y81371D01*
X62359Y81351D01*
X62421Y81328D01*
X62493Y81305D01*
X62579Y81279D01*
X62582D01*
X62595Y81272D01*
X62618Y81266D01*
X62644Y81259D01*
X62677Y81246D01*
X62713Y81233D01*
X62756Y81217D01*
X62802Y81197D01*
X62900Y81151D01*
X63002Y81098D01*
X63097Y81039D01*
X63143Y81007D01*
X63186Y80971D01*
X63189Y80967D01*
X63195Y80961D01*
X63205Y80951D01*
X63218Y80934D01*
X63235Y80915D01*
X63254Y80892D01*
X63271Y80862D01*
X63294Y80829D01*
X63313Y80793D01*
X63330Y80754D01*
X63349Y80708D01*
X63366Y80659D01*
X63379Y80603D01*
X63389Y80547D01*
X63395Y80485D01*
X63399Y80419D01*
Y80416D01*
Y80410D01*
Y80396D01*
X63395Y80377D01*
Y80354D01*
X63392Y80331D01*
X63382Y80269D01*
X63369Y80200D01*
X63346Y80128D01*
X63313Y80049D01*
X63271Y79977D01*
Y79973D01*
X63264Y79967D01*
X63258Y79957D01*
X63248Y79944D01*
X63218Y79911D01*
X63176Y79868D01*
X63126Y79822D01*
X63061Y79773D01*
X62989Y79724D01*
X62903Y79681D01*
X62900D01*
X62894Y79678D01*
X62880Y79672D01*
X62861Y79665D01*
X62838Y79659D01*
X62812Y79649D01*
X62779Y79639D01*
X62743Y79632D01*
X62703Y79622D01*
X62661Y79613D01*
X62615Y79603D01*
X62566Y79596D01*
X62457Y79583D01*
X62339Y79580D01*
X62313D01*
X62277Y79583D01*
X62234Y79586D01*
X62182Y79593D01*
X62120Y79599D01*
X62051Y79613D01*
X61975Y79629D01*
X61897Y79649D01*
X61811Y79675D01*
X61726Y79708D01*
X61641Y79744D01*
X61559Y79790D01*
X61473Y79842D01*
X61395Y79901D01*
X61319Y79970D01*
X61601Y80285D01*
X61605Y80282D01*
X61614Y80272D01*
X61634Y80259D01*
X61657Y80242D01*
X61690Y80219D01*
X61726Y80196D01*
X61769Y80170D01*
X61814Y80144D01*
X61867Y80118D01*
X61923Y80091D01*
X61985Y80068D01*
X62047Y80045D01*
X62116Y80029D01*
X62188Y80016D01*
X62264Y80006D01*
X62339Y80003D01*
X62362D01*
X62375Y80006D01*
X62395D01*
X62418Y80009D01*
X62471Y80016D01*
X62529Y80029D01*
X62589Y80045D01*
X62651Y80072D01*
X62707Y80105D01*
X62710D01*
X62713Y80111D01*
X62730Y80124D01*
X62753Y80147D01*
X62779Y80180D01*
X62805Y80223D01*
X62828Y80272D01*
X62844Y80331D01*
X62851Y80364D01*
Y80396D01*
Y80400D01*
Y80416D01*
X62848Y80436D01*
X62844Y80459D01*
X62841Y80488D01*
X62835Y80518D01*
X62821Y80547D01*
X62808Y80577D01*
X62805Y80580D01*
X62799Y80590D01*
X62789Y80603D01*
X62772Y80620D01*
X62753Y80639D01*
X62726Y80662D01*
X62694Y80685D01*
X62654Y80708D01*
X62648Y80711D01*
X62634Y80718D01*
X62608Y80731D01*
X62575Y80747D01*
X62529Y80764D01*
X62474Y80787D01*
X62411Y80810D01*
X62336Y80833D01*
X62329Y80836D01*
X62316Y80839D01*
X62293Y80846D01*
X62261Y80856D01*
X62225Y80869D01*
X62182Y80885D01*
X62133Y80905D01*
X62083Y80925D01*
X61972Y80971D01*
X61860Y81026D01*
X61808Y81056D01*
X61755Y81089D01*
X61706Y81121D01*
X61664Y81157D01*
X61660Y81161D01*
X61654Y81167D01*
X61644Y81177D01*
X61631Y81194D01*
X61614Y81210D01*
X61595Y81233D01*
X61575Y81262D01*
X61555Y81292D01*
X61536Y81328D01*
X61516Y81364D01*
X61496Y81407D01*
X61480Y81449D01*
X61467Y81499D01*
X61457Y81551D01*
X61450Y81603D01*
X61447Y81663D01*
Y81666D01*
Y81672D01*
Y81686D01*
X61450Y81699D01*
Y81718D01*
X61454Y81741D01*
X61463Y81797D01*
X61477Y81856D01*
X61500Y81922D01*
X61529Y81991D01*
X61568Y82056D01*
Y82059D01*
X61575Y82063D01*
X61582Y82073D01*
X61591Y82086D01*
X61621Y82115D01*
X61657Y82155D01*
X61706Y82197D01*
X61765Y82243D01*
X61834Y82286D01*
X61910Y82325D01*
X61913D01*
X61919Y82328D01*
X61933Y82335D01*
X61949Y82341D01*
X61969Y82348D01*
X61995Y82355D01*
X62021Y82364D01*
X62054Y82374D01*
X62126Y82391D01*
X62211Y82407D01*
X62303Y82417D01*
X62402Y82420D01*
X62425D01*
X62454Y82417D01*
D02*
G37*
G36*
X65783Y81928D02*
X65022D01*
Y79629D01*
X64494D01*
Y81928D01*
X63691D01*
Y82368D01*
X65836D01*
X65783Y81928D01*
D02*
G37*
G36*
X60017Y82364D02*
X60043Y82361D01*
X60076Y82358D01*
X60112Y82355D01*
X60194Y82341D01*
X60286Y82325D01*
X60381Y82299D01*
X60483Y82266D01*
X60584Y82223D01*
X60680Y82171D01*
X60771Y82105D01*
X60814Y82066D01*
X60853Y82027D01*
X60890Y81981D01*
X60922Y81935D01*
X60952Y81882D01*
X60975Y81827D01*
X60994Y81764D01*
X61008Y81702D01*
X61017Y81630D01*
X61021Y81558D01*
Y81554D01*
Y81545D01*
Y81528D01*
X61017Y81508D01*
X61014Y81485D01*
X61011Y81456D01*
X61008Y81423D01*
X60998Y81387D01*
X60978Y81312D01*
X60945Y81230D01*
X60926Y81187D01*
X60903Y81148D01*
X60876Y81108D01*
X60844Y81069D01*
X60840Y81066D01*
X60837Y81059D01*
X60827Y81049D01*
X60814Y81036D01*
X60794Y81023D01*
X60775Y81003D01*
X60725Y80964D01*
X60663Y80918D01*
X60588Y80875D01*
X60506Y80836D01*
X60414Y80803D01*
X61172Y79629D01*
X60588D01*
X59919Y80725D01*
X59689D01*
Y79629D01*
X59164D01*
Y82368D01*
X59991D01*
X60017Y82364D01*
D02*
G37*
%LPC*%
G36*
X60020Y81958D02*
X59689D01*
Y81128D01*
X60004D01*
X60020Y81131D01*
X60043D01*
X60066Y81134D01*
X60122Y81141D01*
X60181Y81154D01*
X60243Y81171D01*
X60302Y81197D01*
X60352Y81230D01*
X60358Y81233D01*
X60371Y81249D01*
X60391Y81272D01*
X60414Y81308D01*
X60437Y81354D01*
X60457Y81410D01*
X60470Y81479D01*
X60476Y81558D01*
Y81561D01*
Y81567D01*
Y81577D01*
X60473Y81594D01*
X60470Y81630D01*
X60460Y81676D01*
X60447Y81725D01*
X60424Y81777D01*
X60394Y81823D01*
X60355Y81863D01*
X60348Y81866D01*
X60332Y81879D01*
X60302Y81892D01*
X60263Y81912D01*
X60207Y81928D01*
X60142Y81945D01*
X60063Y81954D01*
X60020Y81958D01*
D02*
G37*
%LPD*%
D35*
X193250Y40000D02*
D03*
D36*
X31827Y33500D02*
D03*
X35173D02*
D03*
Y45500D02*
D03*
X31827D02*
D03*
X152173Y69500D02*
D03*
X148827D02*
D03*
X-673Y14500D02*
D03*
X2673D02*
D03*
X54327Y35000D02*
D03*
X57673D02*
D03*
X43673D02*
D03*
X40327D02*
D03*
X142673Y58500D02*
D03*
X139327D02*
D03*
X161673Y69500D02*
D03*
X158327D02*
D03*
X56173Y66000D02*
D03*
X52827D02*
D03*
D37*
X19600Y11000D02*
D03*
X15600D02*
D03*
X19600Y14999D02*
D03*
X15600D02*
D03*
X158000Y58500D02*
D03*
X162000D02*
D03*
X148500Y58500D02*
D03*
X152500D02*
D03*
X139191Y69500D02*
D03*
X143191D02*
D03*
X115500Y24000D02*
D03*
X119500D02*
D03*
X73000Y26964D02*
D03*
X69000D02*
D03*
X73000Y30464D02*
D03*
X69000D02*
D03*
X73000Y33964D02*
D03*
X69000D02*
D03*
X73000Y37464D02*
D03*
X69000D02*
D03*
X73000Y40964D02*
D03*
X69000D02*
D03*
X73000Y44464D02*
D03*
X69000D02*
D03*
X73000Y47964D02*
D03*
X69000D02*
D03*
X73000Y51964D02*
D03*
X69000D02*
D03*
X21734Y63000D02*
D03*
X17734D02*
D03*
X174500Y69500D02*
D03*
X170500D02*
D03*
X7600Y11000D02*
D03*
X11600D02*
D03*
X7600Y14999D02*
D03*
X11600D02*
D03*
D38*
X131500Y31000D02*
D03*
Y35000D02*
D03*
X104500Y35500D02*
D03*
Y31500D02*
D03*
X104500Y44000D02*
D03*
Y40000D02*
D03*
X22500Y67000D02*
D03*
Y71000D02*
D03*
X18000D02*
D03*
Y67000D02*
D03*
D39*
X179535Y19232D02*
D03*
X196465D02*
D03*
X179535Y10768D02*
D03*
X196465D02*
D03*
X180035Y69232D02*
D03*
X196965D02*
D03*
X180035Y60768D02*
D03*
X196965D02*
D03*
D40*
X122421Y45768D02*
D03*
X120453D02*
D03*
X118484D02*
D03*
X116516D02*
D03*
X114547D02*
D03*
X112579D02*
D03*
Y29232D02*
D03*
X114547D02*
D03*
X116516D02*
D03*
X118484D02*
D03*
X120453D02*
D03*
X122421D02*
D03*
D41*
X109232Y42421D02*
D03*
Y40453D02*
D03*
Y38484D02*
D03*
Y36516D02*
D03*
Y34547D02*
D03*
Y32579D02*
D03*
X125768D02*
D03*
Y34547D02*
D03*
Y36516D02*
D03*
Y38484D02*
D03*
Y40453D02*
D03*
Y42421D02*
D03*
D42*
X117500Y37500D02*
D03*
X49500Y51500D02*
D03*
D43*
X151500Y37500D02*
D03*
D44*
X162327Y50738D02*
D03*
X160358D02*
D03*
X158390D02*
D03*
X156421D02*
D03*
X154453D02*
D03*
X152484D02*
D03*
X150516D02*
D03*
X148547D02*
D03*
X146579D02*
D03*
X144610D02*
D03*
X142642D02*
D03*
X140673D02*
D03*
Y24262D02*
D03*
X142642D02*
D03*
X144610D02*
D03*
X146579D02*
D03*
X148547D02*
D03*
X150516D02*
D03*
X152484D02*
D03*
X154453D02*
D03*
X156421D02*
D03*
X158390D02*
D03*
X160358D02*
D03*
X162327D02*
D03*
D45*
X138262Y48327D02*
D03*
Y46358D02*
D03*
Y44390D02*
D03*
Y42421D02*
D03*
Y40453D02*
D03*
Y38484D02*
D03*
Y36516D02*
D03*
Y34547D02*
D03*
Y32579D02*
D03*
Y30610D02*
D03*
Y28642D02*
D03*
Y26673D02*
D03*
X164738D02*
D03*
Y28642D02*
D03*
Y30610D02*
D03*
Y32579D02*
D03*
Y34547D02*
D03*
Y36516D02*
D03*
Y38484D02*
D03*
Y40453D02*
D03*
Y42421D02*
D03*
Y44390D02*
D03*
Y46358D02*
D03*
Y48327D02*
D03*
D46*
X42260Y20142D02*
D03*
X38520Y29000D02*
D03*
X46000D02*
D03*
X55740Y20142D02*
D03*
X52000Y29000D02*
D03*
X59480D02*
D03*
D47*
X93500Y48232D02*
D03*
Y39965D02*
D03*
Y31697D02*
D03*
Y23429D02*
D03*
Y56500D02*
D03*
Y28941D02*
D03*
Y26185D02*
D03*
Y37209D02*
D03*
Y34453D02*
D03*
Y45476D02*
D03*
Y42720D02*
D03*
Y53744D02*
D03*
Y50988D02*
D03*
D48*
X55405Y42350D02*
D03*
X53437D02*
D03*
X51468D02*
D03*
X49500D02*
D03*
X47532D02*
D03*
X45563D02*
D03*
X43595D02*
D03*
Y60650D02*
D03*
X45563D02*
D03*
X47532D02*
D03*
X49500D02*
D03*
X51468D02*
D03*
X53437D02*
D03*
X55405D02*
D03*
D49*
X40350Y45594D02*
D03*
Y47563D02*
D03*
Y49531D02*
D03*
Y51500D02*
D03*
Y53469D02*
D03*
Y55437D02*
D03*
Y57406D02*
D03*
X58650D02*
D03*
Y55437D02*
D03*
Y53469D02*
D03*
Y51500D02*
D03*
Y49531D02*
D03*
Y47563D02*
D03*
Y45594D02*
D03*
D50*
X594Y63260D02*
D03*
Y67000D02*
D03*
Y70740D02*
D03*
X11994D02*
D03*
Y63260D02*
D03*
D51*
X193000Y29910D02*
D03*
Y50000D02*
D03*
D52*
X23421Y53689D02*
D03*
Y52508D02*
D03*
Y50539D02*
D03*
Y49358D02*
D03*
Y47390D02*
D03*
Y45421D02*
D03*
Y43453D02*
D03*
Y41484D02*
D03*
Y39516D02*
D03*
Y37547D02*
D03*
Y35579D02*
D03*
Y33610D02*
D03*
Y31642D02*
D03*
Y30461D02*
D03*
Y28492D02*
D03*
Y27311D02*
D03*
D53*
X192913Y80709D02*
D03*
Y0D02*
D03*
X0D02*
D03*
Y80709D02*
D03*
D54*
X181500Y80000D02*
D03*
X181000Y500D02*
D03*
D55*
X171500Y80000D02*
D03*
X161500D02*
D03*
X151500D02*
D03*
X141500D02*
D03*
X131500D02*
D03*
X121500D02*
D03*
X111500D02*
D03*
X101500D02*
D03*
X91500D02*
D03*
X81500D02*
D03*
X71500D02*
D03*
X61500D02*
D03*
X51500D02*
D03*
X41500D02*
D03*
X31500D02*
D03*
X21500D02*
D03*
X11500D02*
D03*
X11000Y500D02*
D03*
X21000D02*
D03*
X31000D02*
D03*
X41000D02*
D03*
X51000D02*
D03*
X61000D02*
D03*
X71000D02*
D03*
X81000D02*
D03*
X91000D02*
D03*
X101000D02*
D03*
X111000D02*
D03*
X121000D02*
D03*
X131000D02*
D03*
X141000D02*
D03*
X151000D02*
D03*
X161000D02*
D03*
X171000D02*
D03*
D56*
X169500Y59000D02*
D03*
Y27504D02*
D03*
D57*
X19327Y57528D02*
D03*
Y23472D02*
D03*
D58*
X3579Y57528D02*
D03*
Y23472D02*
D03*
D59*
X17358Y29122D02*
D03*
Y51878D02*
D03*
M02*
