M48
;Layer_Color=9474304
;FILE_FORMAT=2:5
INCH,TZ
;TYPE=PLATED
T1F00S00C0.01000
T3F00S00C0.02559
T4F00S00C0.03543
T5F00S00C0.07874
;TYPE=NON_PLATED
T6F00S00C0.03937
%
T01
X26813Y-5288
X22500Y11000
X26500Y19000
X12500Y19500
X3500Y18500
X-3500Y28000
X7500Y34000
X5237Y38000
X11500Y45500
X10000Y54000
X32000Y53000
X33500Y40115
X34662Y38366
X36761Y38429
X46119Y36109
X51000Y37500
X53794Y38031
X57500Y38000
X59990Y38149
X59313Y32393
X66100Y36900
X66570Y40635
X65700Y46500
X64050Y45000
X63599Y48063
X67000Y50000
X64600Y55356
X62500
X58650Y49531
X52000Y49000
Y53500
X47000
Y49000
X57612Y42388
X75198Y39867
X75213Y29012
X76813Y27012
X75213Y19112
X81991Y21512
X87500Y12500
X93916Y8200
X103213Y6600
X103500Y26500
X110463Y30712
X106713Y40112
X109500Y54500
X112556Y55106
X125500Y53000
X122421Y46228
X135353Y46753
X133605Y48500
X135500Y50500
X141385Y48181
X138600Y42597
X147000Y42000
Y37500
Y33000
X151500
X156000
Y37500
Y42000
X151500
Y37500
X141900Y35100
X141000Y27500
X140500Y20500
X137000Y21199
X138000Y17500
X135000Y18000
Y13500
X137500Y13000
X130513Y17212
X122500Y23016
Y28500
X127000Y27700
X135580Y30130
X133200Y35000
X132484Y37425
X146579Y53512
X151213Y53912
X153313Y53612
X155453Y53312
X161000Y55500
X164500Y56000
X175500Y55000
X180500Y56500
X183000
X185500
X188000
X180500Y53000
X181500Y47500
Y45000
Y42500
Y40000
Y37000
X182000Y34000
Y31000
Y27500
Y24500
X185998
X188500
X175800Y24080
X174967Y31153
X169500Y31500
X167500Y34500
X162000Y31500
X161511Y27389
X165424Y20863
X169500Y19000
X176900Y16000
X158390Y19805
X151500Y20500
X154500Y15500
X146500Y-5500
X170000Y41500
X176500Y45000
X76000Y57500
X61513Y14912
X62513Y10951
X57813Y16412
X45806Y10000
X40020Y8812
X33813Y29612
X191000Y24500
X193500
X196000
X198500
X192500Y15000
X193000Y56500
X190500
X195500
X198000
X188000Y64999
X176000Y64000
X161556Y60627
X143988Y62612
X139013Y60612
X139179Y65543
X133000Y62500
X127874Y71500
X125500Y70000
X119500Y73000
X116819Y72500
X116362Y70000
X110613Y70112
X111500Y67470
X121500Y59500
X135983Y74966
X137246Y76900
X144207Y84000
X96413Y73512
X90000Y71000
X84000Y62000
X76000
X72000Y72500
X61500Y71500
X42500Y72500
X33500Y60000
X28000Y59500
X29500Y72500
X21812Y75312
X6913Y70312
X6000Y65000
T03
X17358Y29122
Y51878
T04
X11000Y500
X21000
X31000
X41000
X51000
X61000
X71000
X81000
X91000
X101000
X111000
X121000
X131000
X141000
X151000
X161000
X171000
X181000
X181500Y80000
X171500
X161500
X151500
X141500
X131500
X121500
X111500
X101500
X91500
X81500
X71500
X61500
X51500
X41500
X31500
X21500
X11500
T05
X0Y0
X192913
Y80709
X0
T06
X169500Y27504
Y59000
M30
