G04*
G04 #@! TF.GenerationSoftware,Altium Limited,Altium Designer,20.0.13 (296)*
G04*
G04 Layer_Color=128*
%FSLAX25Y25*%
%MOIN*%
G70*
G01*
G75*
%ADD10C,0.01000*%
%ADD11C,0.00000*%
%ADD12C,0.00236*%
%ADD13C,0.00394*%
%ADD14C,0.00591*%
%ADD15C,0.00200*%
%ADD16C,0.00197*%
%ADD17C,0.00100*%
G36*
X196767Y58701D02*
X180232D01*
Y71299D01*
X196767D01*
Y58701D01*
D02*
G37*
G36*
X15100Y16200D02*
Y16100D01*
X15024Y15916D01*
X14883Y15776D01*
X14699Y15700D01*
X14100D01*
Y16700D01*
X15100D01*
Y16200D01*
D02*
G37*
G36*
Y12200D02*
Y12100D01*
X15024Y11917D01*
X14883Y11776D01*
X14699Y11700D01*
X14100D01*
Y12700D01*
X15100D01*
Y12200D01*
D02*
G37*
G36*
X196267Y8701D02*
X179732D01*
Y21299D01*
X196267D01*
Y8701D01*
D02*
G37*
D10*
X193500Y-7500D02*
G03*
X200500Y-500I0J7000D01*
G01*
X-7500D02*
G03*
X-500Y-7500I7000J0D01*
G01*
Y88000D02*
G03*
X-7500Y81000I0J-7000D01*
G01*
X200500D02*
G03*
X193500Y88000I-7000J0D01*
G01*
X-500Y88000D02*
X193500D01*
X-7500Y-500D02*
Y81000D01*
X-500Y-7500D02*
X193500D01*
X200500Y-500D02*
Y81000D01*
X109000Y21548D02*
G03*
X109000Y21548I-1500J0D01*
G01*
X82000Y21500D02*
G03*
X82000Y21500I-1500J0D01*
G01*
X58500Y21210D02*
G03*
X58500Y21210I-1500J0D01*
G01*
X39500D02*
G03*
X39500Y21210I-1500J0D01*
G01*
D11*
X59350Y41650D02*
Y61350D01*
X39650Y41650D02*
X59350D01*
X39650D02*
Y61350D01*
X59350D01*
X39650Y44995D02*
Y46194D01*
Y44995D02*
Y46194D01*
Y46963D02*
Y48163D01*
Y46963D02*
Y48163D01*
Y48932D02*
Y50131D01*
Y48932D02*
Y50131D01*
Y50900D02*
Y52100D01*
Y50900D02*
Y52100D01*
Y52868D02*
Y54068D01*
Y52868D02*
Y54068D01*
Y54837D02*
Y56037D01*
Y54837D02*
Y56037D01*
Y56805D02*
Y58005D01*
Y56805D02*
Y58005D01*
X42994Y61350D02*
X44194D01*
X42994D02*
X44194D01*
X44963D02*
X46163D01*
X44963D02*
X46163D01*
X46931D02*
X48131D01*
X46931D02*
X48131D01*
X48900D02*
X50100D01*
X48900D02*
X50100D01*
X50868D02*
X52069D01*
X50868D02*
X52069D01*
X52837D02*
X54037D01*
X52837D02*
X54037D01*
X54805D02*
X56006D01*
X54805D02*
X56006D01*
X59350Y56805D02*
Y58005D01*
Y56805D02*
Y58005D01*
Y54837D02*
Y56037D01*
Y54837D02*
Y56037D01*
Y52868D02*
Y54068D01*
Y52868D02*
Y54068D01*
Y50900D02*
Y52100D01*
Y50900D02*
Y52100D01*
Y48932D02*
Y50131D01*
Y48932D02*
Y50131D01*
Y46963D02*
Y48163D01*
Y46963D02*
Y48163D01*
Y44995D02*
Y46194D01*
Y44995D02*
Y46194D01*
X54805Y41650D02*
X56006D01*
X54805D02*
X56006D01*
X52837D02*
X54037D01*
X52837D02*
X54037D01*
X50868D02*
X52069D01*
X50868D02*
X52069D01*
X48900D02*
X50100D01*
X48900D02*
X50100D01*
X46931D02*
X48131D01*
X46931D02*
X48131D01*
X44963D02*
X46163D01*
X44963D02*
X46163D01*
X42994D02*
X44194D01*
X42994D02*
X44194D01*
D12*
X196386Y21299D02*
G03*
X196386Y21299I-118J0D01*
G01*
X196886Y71299D02*
G03*
X196886Y71299I-118J0D01*
G01*
D13*
X14299Y46799D02*
G03*
X14299Y46799I-1969J0D01*
G01*
X15874Y30658D02*
Y50343D01*
X126Y30658D02*
Y50343D01*
X15874D01*
X126Y30658D02*
X15874D01*
X2957Y60898D02*
X10043D01*
X2957Y73102D02*
X10043D01*
Y60898D02*
Y73102D01*
X2957Y60898D02*
Y73102D01*
X105886Y49114D02*
X129114D01*
X105886Y25886D02*
X129114D01*
Y49114D01*
X105886Y25886D02*
Y49114D01*
X117500Y35531D02*
Y39469D01*
X115532Y37500D02*
X119468D01*
X24535Y29476D02*
Y53000D01*
X-8535Y29476D02*
Y53000D01*
X24535D01*
X-8535Y29476D02*
X24535D01*
X6032Y40500D02*
X9968D01*
X8000Y38532D02*
Y42469D01*
X48760Y17571D02*
Y31571D01*
X35760Y17571D02*
Y31571D01*
X48760D01*
X35760Y17571D02*
X48760D01*
X42260Y23571D02*
Y25571D01*
X41260Y24571D02*
X43260D01*
X62240Y17571D02*
Y31571D01*
X49240Y17571D02*
Y31571D01*
X62240D01*
X49240Y17571D02*
X62240D01*
X55740Y23571D02*
Y25571D01*
X54740Y24571D02*
X56740D01*
X6500Y65031D02*
Y68968D01*
X4532Y67000D02*
X8468D01*
X-2500Y59913D02*
X15500D01*
X-2500Y74087D02*
X15500D01*
Y59913D02*
Y74087D01*
X-2500Y59913D02*
Y74087D01*
D14*
X112500Y18080D02*
Y39340D01*
X85500Y18080D02*
X112500D01*
X85500D02*
Y39340D01*
X112500D01*
X84000Y18032D02*
Y39291D01*
X62850Y18032D02*
X84000D01*
X62850D02*
Y39291D01*
X84000D01*
X44000Y39340D02*
X60000D01*
X44000Y18080D02*
Y39340D01*
Y18080D02*
X60000D01*
Y39340D01*
X25000D02*
X41000D01*
X25000Y18080D02*
Y39340D01*
Y18080D02*
X41000D01*
Y39340D01*
X113500Y8710D02*
Y48710D01*
X90500Y8710D02*
X113500D01*
X84500D02*
X90500D01*
X84500D02*
Y48710D01*
X113500D01*
X85000Y8661D02*
Y48661D01*
X65000Y8661D02*
X85000D01*
X62000D02*
X65000D01*
X62000D02*
Y48661D01*
X85000D01*
X43000Y48709D02*
X61000D01*
X43000Y8709D02*
Y48709D01*
Y8709D02*
X43500D01*
X61000D01*
Y48709D01*
X24000D02*
X42000D01*
X24000Y8709D02*
Y48709D01*
Y8709D02*
X24500D01*
X42000D01*
Y48709D01*
D15*
X17000Y11000D02*
X18200D01*
X17600Y10400D02*
Y11599D01*
X15631Y10015D02*
X19568D01*
X15631Y11984D02*
X19568D01*
Y10015D02*
Y11984D01*
X15631Y10015D02*
Y11984D01*
X17000Y15000D02*
X18200D01*
X17600Y14400D02*
Y15599D01*
X15631Y14015D02*
X19568D01*
X15631Y15984D02*
X19568D01*
Y14015D02*
Y15984D01*
X15631Y14015D02*
Y15984D01*
X161969Y57516D02*
Y59484D01*
X158031Y57516D02*
Y59484D01*
Y57516D02*
X161969D01*
X158031Y59484D02*
X161969D01*
X160000Y57900D02*
Y59100D01*
X159400Y58500D02*
X160600D01*
X152469Y57516D02*
Y59484D01*
X148531Y57516D02*
Y59484D01*
Y57516D02*
X152469D01*
X148531Y59484D02*
X152469D01*
X150500Y57900D02*
Y59100D01*
X149900Y58500D02*
X151100D01*
X143159Y68516D02*
Y70484D01*
X139222Y68516D02*
Y70484D01*
Y68516D02*
X143159D01*
X139222Y70484D02*
X143159D01*
X141191Y68900D02*
Y70100D01*
X140590Y69500D02*
X141790D01*
X130516Y34968D02*
X132484D01*
X130516Y31031D02*
X132484D01*
Y34968D01*
X130516Y31031D02*
Y34968D01*
X130900Y33000D02*
X132100D01*
X131500Y32399D02*
Y33599D01*
X119469Y23016D02*
Y24984D01*
X115532Y23016D02*
Y24984D01*
Y23016D02*
X119469D01*
X115532Y24984D02*
X119469D01*
X117500Y23400D02*
Y24600D01*
X116900Y24000D02*
X118100D01*
X103516Y31531D02*
X105484D01*
X103516Y35468D02*
X105484D01*
X103516Y31531D02*
Y35468D01*
X105484Y31531D02*
Y35468D01*
X103900Y33500D02*
X105100D01*
X104500Y32900D02*
Y34100D01*
X103516Y40031D02*
X105484D01*
X103516Y43968D02*
X105484D01*
X103516Y40031D02*
Y43968D01*
X105484Y40031D02*
Y43968D01*
X103900Y42000D02*
X105100D01*
X104500Y41400D02*
Y42600D01*
X70400Y26964D02*
X71600D01*
X71000Y26364D02*
Y27564D01*
X69032Y27948D02*
X72969D01*
X69032Y25980D02*
X72969D01*
X69032D02*
Y27948D01*
X72969Y25980D02*
Y27948D01*
X70400Y30464D02*
X71600D01*
X71000Y29864D02*
Y31064D01*
X69032Y31449D02*
X72969D01*
X69032Y29480D02*
X72969D01*
X69032D02*
Y31449D01*
X72969Y29480D02*
Y31449D01*
X70400Y33964D02*
X71600D01*
X71000Y33364D02*
Y34564D01*
X69032Y34949D02*
X72969D01*
X69032Y32980D02*
X72969D01*
X69032D02*
Y34949D01*
X72969Y32980D02*
Y34949D01*
X69032Y36480D02*
Y38449D01*
X72969Y36480D02*
Y38449D01*
X69032D02*
X72969D01*
X69032Y36480D02*
X72969D01*
X71000Y36864D02*
Y38064D01*
X70400Y37464D02*
X71600D01*
X70400Y40964D02*
X71600D01*
X71000Y40364D02*
Y41564D01*
X69032Y41949D02*
X72969D01*
X69032Y39980D02*
X72969D01*
X69032D02*
Y41949D01*
X72969Y39980D02*
Y41949D01*
X70400Y44464D02*
X71600D01*
X71000Y43864D02*
Y45064D01*
X69032Y45448D02*
X72969D01*
X69032Y43480D02*
X72969D01*
X69032D02*
Y45448D01*
X72969Y43480D02*
Y45448D01*
X69032Y46980D02*
Y48948D01*
X72969Y46980D02*
Y48948D01*
X69032D02*
X72969D01*
X69032Y46980D02*
X72969D01*
X71000Y47364D02*
Y48564D01*
X70400Y47965D02*
X71600D01*
X69032Y50980D02*
Y52948D01*
X72969Y50980D02*
Y52948D01*
X69032D02*
X72969D01*
X69032Y50980D02*
X72969D01*
X71000Y51364D02*
Y52564D01*
X70400Y51964D02*
X71600D01*
X19133Y62999D02*
X20334D01*
X19734Y62400D02*
Y63600D01*
X17765Y63984D02*
X21702D01*
X17765Y62016D02*
X21702D01*
X17765D02*
Y63984D01*
X21702Y62016D02*
Y63984D01*
X22500Y68400D02*
Y69600D01*
X21900Y69000D02*
X23100D01*
X23484Y67031D02*
Y70969D01*
X21516Y67031D02*
Y70969D01*
X23484D01*
X21516Y67031D02*
X23484D01*
X17016D02*
X18984D01*
X17016Y70969D02*
X18984D01*
X17016Y67031D02*
Y70969D01*
X18984Y67031D02*
Y70969D01*
X17400Y69000D02*
X18600D01*
X18000Y68400D02*
Y69600D01*
X171900Y69500D02*
X173100D01*
X172500Y68900D02*
Y70100D01*
X170531Y70484D02*
X174469D01*
X170531Y68516D02*
X174469D01*
X170531D02*
Y70484D01*
X174469Y68516D02*
Y70484D01*
X9000Y11000D02*
X10200D01*
X9600Y10400D02*
Y11599D01*
X7631Y10015D02*
X11568D01*
X7631Y11984D02*
X11568D01*
Y10015D02*
Y11984D01*
X7631Y10015D02*
Y11984D01*
X9000Y15000D02*
X10200D01*
X9600Y14400D02*
Y15599D01*
X7631Y14015D02*
X11568D01*
X7631Y15984D02*
X11568D01*
Y14015D02*
Y15984D01*
X7631Y14015D02*
Y15984D01*
X14100Y9300D02*
X21100D01*
X14100D02*
Y12699D01*
X21100Y9300D02*
Y12699D01*
X14100D02*
X21100D01*
X14100Y13299D02*
X21100D01*
X14100D02*
Y16700D01*
X21100Y13299D02*
Y16700D01*
X14100D02*
X21100D01*
X156500Y56800D02*
X163500D01*
X156500D02*
Y60200D01*
X163500Y56800D02*
Y60200D01*
X156500D02*
X163500D01*
X147000Y56800D02*
X154000D01*
X147000D02*
Y60200D01*
X154000Y56800D02*
Y60200D01*
X147000D02*
X154000D01*
X137691Y67800D02*
X144691D01*
X137691D02*
Y71200D01*
X144691Y67800D02*
Y71200D01*
X137691D02*
X144691D01*
X133200Y29500D02*
Y36500D01*
X129800Y29500D02*
X133200D01*
X129800Y36500D02*
X133200D01*
X129800Y29500D02*
Y36500D01*
X114000Y22300D02*
X121000D01*
X114000D02*
Y25700D01*
X121000Y22300D02*
Y25700D01*
X114000D02*
X121000D01*
X102800Y30000D02*
Y37000D01*
X106200D01*
X102800Y30000D02*
X106200D01*
Y37000D01*
X102800Y38500D02*
Y45500D01*
X106200D01*
X102800Y38500D02*
X106200D01*
Y45500D01*
X67500Y25264D02*
X74500D01*
X67500D02*
Y28664D01*
X74500Y25264D02*
Y28664D01*
X67500D02*
X74500D01*
X67500Y28764D02*
X74500D01*
X67500D02*
Y32164D01*
X74500Y28764D02*
Y32164D01*
X67500D02*
X74500D01*
X67500Y32264D02*
X74500D01*
X67500D02*
Y35664D01*
X74500Y32264D02*
Y35664D01*
X67500D02*
X74500D01*
X67500Y39164D02*
X74500D01*
Y35764D02*
Y39164D01*
X67500Y35764D02*
Y39164D01*
Y35764D02*
X74500D01*
X67500Y39264D02*
X74500D01*
X67500D02*
Y42664D01*
X74500Y39264D02*
Y42664D01*
X67500D02*
X74500D01*
X67500Y42764D02*
X74500D01*
X67500D02*
Y46164D01*
X74500Y42764D02*
Y46164D01*
X67500D02*
X74500D01*
X67500Y49664D02*
X74500D01*
Y46264D02*
Y49664D01*
X67500Y46264D02*
Y49664D01*
Y46264D02*
X74500D01*
X67500Y53664D02*
X74500D01*
Y50264D02*
Y53664D01*
X67500Y50264D02*
Y53664D01*
Y50264D02*
X74500D01*
X16234Y64700D02*
X23234D01*
Y61300D02*
Y64700D01*
X16234Y61300D02*
Y64700D01*
Y61300D02*
X23234D01*
X24200Y65500D02*
Y72500D01*
X20800Y65500D02*
X24200D01*
X20800Y72500D02*
X24200D01*
X20800Y65500D02*
Y72500D01*
X16300Y65500D02*
Y72500D01*
X19700D01*
X16300Y65500D02*
X19700D01*
Y72500D01*
X169000Y67800D02*
X176000D01*
X169000D02*
Y71200D01*
X176000Y67800D02*
Y71200D01*
X169000D02*
X176000D01*
X6100Y12699D02*
X13100D01*
Y9300D02*
Y12699D01*
X6100Y9300D02*
Y12699D01*
Y9300D02*
X13100D01*
X6100Y16700D02*
X13100D01*
Y13299D02*
Y16700D01*
X6100Y13299D02*
Y16700D01*
Y13299D02*
X13100D01*
X188976Y80709D02*
X196850D01*
X192913Y76772D02*
Y84646D01*
X188976Y0D02*
X196850D01*
X192913Y-3937D02*
Y3937D01*
X-3937Y0D02*
X3937D01*
X0Y-3937D02*
Y3937D01*
X-3937Y80709D02*
X3937D01*
X0Y76772D02*
Y84646D01*
X179728Y80000D02*
X183272D01*
X181500Y78228D02*
Y81772D01*
X169728Y80000D02*
X173272D01*
X171500Y78228D02*
Y81772D01*
X159728Y80000D02*
X163272D01*
X161500Y78228D02*
Y81772D01*
X149728Y80000D02*
X153272D01*
X151500Y78228D02*
Y81772D01*
X139728Y80000D02*
X143272D01*
X141500Y78228D02*
Y81772D01*
X129728Y80000D02*
X133272D01*
X131500Y78228D02*
Y81772D01*
X119728Y80000D02*
X123272D01*
X121500Y78228D02*
Y81772D01*
X109728Y80000D02*
X113272D01*
X111500Y78228D02*
Y81772D01*
X99728Y80000D02*
X103272D01*
X101500Y78228D02*
Y81772D01*
X89728Y80000D02*
X93272D01*
X91500Y78228D02*
Y81772D01*
X79728Y80000D02*
X83272D01*
X81500Y78228D02*
Y81772D01*
X69728Y80000D02*
X73272D01*
X71500Y78228D02*
Y81772D01*
X59728Y80000D02*
X63272D01*
X61500Y78228D02*
Y81772D01*
X49728Y80000D02*
X53272D01*
X51500Y78228D02*
Y81772D01*
X39728Y80000D02*
X43272D01*
X41500Y78228D02*
Y81772D01*
X29728Y80000D02*
X33272D01*
X31500Y78228D02*
Y81772D01*
X19728Y80000D02*
X23272D01*
X21500Y78228D02*
Y81772D01*
X9728Y80000D02*
X13272D01*
X11500Y78228D02*
Y81772D01*
X167532Y59000D02*
X171469D01*
X169500Y57031D02*
Y60968D01*
X167532Y27504D02*
X171469D01*
X169500Y25535D02*
Y29472D01*
X9228Y500D02*
X12772D01*
X11000Y-1272D02*
Y2272D01*
X19228Y500D02*
X22772D01*
X21000Y-1272D02*
Y2272D01*
X29228Y500D02*
X32772D01*
X31000Y-1272D02*
Y2272D01*
X39228Y500D02*
X42772D01*
X41000Y-1272D02*
Y2272D01*
X49228Y500D02*
X52772D01*
X51000Y-1272D02*
Y2272D01*
X59228Y500D02*
X62772D01*
X61000Y-1272D02*
Y2272D01*
X69228Y500D02*
X72772D01*
X71000Y-1272D02*
Y2272D01*
X79228Y500D02*
X82772D01*
X81000Y-1272D02*
Y2272D01*
X89228Y500D02*
X92772D01*
X91000Y-1272D02*
Y2272D01*
X99228Y500D02*
X102772D01*
X101000Y-1272D02*
Y2272D01*
X109228Y500D02*
X112772D01*
X111000Y-1272D02*
Y2272D01*
X119228Y500D02*
X122772D01*
X121000Y-1272D02*
Y2272D01*
X129228Y500D02*
X132772D01*
X131000Y-1272D02*
Y2272D01*
X139228Y500D02*
X142772D01*
X141000Y-1272D02*
Y2272D01*
X149228Y500D02*
X152772D01*
X151000Y-1272D02*
Y2272D01*
X159228Y500D02*
X162772D01*
X161000Y-1272D02*
Y2272D01*
X169228Y500D02*
X172772D01*
X171000Y-1272D02*
Y2272D01*
X179228Y500D02*
X182772D01*
X181000Y-1272D02*
Y2272D01*
X18146Y57528D02*
X20508D01*
X19327Y56346D02*
Y58709D01*
X18146Y23472D02*
X20508D01*
X19327Y22291D02*
Y24654D01*
X2398Y57528D02*
X4760D01*
X3579Y56346D02*
Y58709D01*
X2398Y23472D02*
X4760D01*
X3579Y22291D02*
Y24654D01*
X16079Y29122D02*
X18638D01*
X17358Y27843D02*
Y30402D01*
X16079Y51878D02*
X18638D01*
X17358Y50598D02*
Y53157D01*
X62013Y10951D02*
X63013D01*
X62513Y10452D02*
Y11451D01*
X87000Y12500D02*
X88000D01*
X87500Y12000D02*
Y13000D01*
X93416Y8200D02*
X94416D01*
X93916Y7700D02*
Y8700D01*
X74698Y39867D02*
X75698D01*
X75198Y39367D02*
Y40367D01*
X135483Y74966D02*
X136483D01*
X135983Y74466D02*
Y75466D01*
X136746Y76900D02*
X137746D01*
X137246Y76400D02*
Y77400D01*
X138679Y65543D02*
X139679D01*
X139179Y65043D02*
Y66043D01*
X161056Y60627D02*
X162056D01*
X161556Y60127D02*
Y61127D01*
X164000Y56000D02*
X165000D01*
X164500Y55500D02*
Y56500D01*
X169500Y41500D02*
X170500D01*
X170000Y41000D02*
Y42000D01*
X53294Y38031D02*
X54294D01*
X53794Y37531D02*
Y38531D01*
X110113Y70112D02*
X111113D01*
X110613Y69612D02*
Y70612D01*
X143488Y62612D02*
X144488D01*
X143988Y62112D02*
Y63112D01*
X146079Y53512D02*
X147079D01*
X146579Y53012D02*
Y54012D01*
X143707Y84000D02*
X144707D01*
X144207Y83500D02*
Y84500D01*
X138513Y60612D02*
X139513D01*
X139013Y60112D02*
Y61112D01*
X127374Y71500D02*
X128374D01*
X127874Y71000D02*
Y72000D01*
X125000Y70000D02*
X126000D01*
X125500Y69500D02*
Y70500D01*
X119000Y73000D02*
X120000D01*
X119500Y72500D02*
Y73500D01*
X115862Y70000D02*
X116862D01*
X116362Y69500D02*
Y70500D01*
X116319Y72500D02*
X117319D01*
X116819Y72000D02*
Y73000D01*
X31500Y53000D02*
X32500D01*
X32000Y52500D02*
Y53500D01*
X33000Y40115D02*
X34000D01*
X33500Y39615D02*
Y40615D01*
X34162Y38366D02*
X35162D01*
X34662Y37865D02*
Y38866D01*
X36261Y38429D02*
X37261D01*
X36761Y37929D02*
Y38929D01*
X58150Y49531D02*
X59150D01*
X58650Y49031D02*
Y50032D01*
X65200Y46500D02*
X66200D01*
X65700Y46000D02*
Y47000D01*
X57112Y42388D02*
X58112D01*
X57612Y41888D02*
Y42888D01*
X66070Y40635D02*
X67070D01*
X66570Y40135D02*
Y41135D01*
X63550Y45000D02*
X64550D01*
X64050Y44500D02*
Y45500D01*
X63099Y48063D02*
X64099D01*
X63599Y47563D02*
Y48563D01*
X121000Y59500D02*
X122000D01*
X121500Y59000D02*
Y60000D01*
X65600Y36900D02*
X66600D01*
X66100Y36400D02*
Y37400D01*
X74713Y29012D02*
X75713D01*
X75213Y28512D02*
Y29512D01*
X74713Y19112D02*
X75713D01*
X75213Y18612D02*
Y19612D01*
X76313Y27012D02*
X77313D01*
X76813Y26512D02*
Y27512D01*
X81491Y21512D02*
X82491D01*
X81991Y21012D02*
Y22012D01*
X122000Y23016D02*
X123000D01*
X122500Y22515D02*
Y23516D01*
X122000Y28500D02*
X123000D01*
X122500Y28000D02*
Y29000D01*
X126500Y27700D02*
X127500D01*
X127000Y27200D02*
Y28200D01*
X135080Y30130D02*
X136080D01*
X135580Y29629D02*
Y30630D01*
X132500Y62500D02*
X133500D01*
X133000Y62000D02*
Y63000D01*
X121921Y46228D02*
X122921D01*
X122421Y45728D02*
Y46728D01*
X59490Y38149D02*
X60490D01*
X59990Y37650D02*
Y38649D01*
X57000Y38000D02*
X58000D01*
X57500Y37500D02*
Y38500D01*
X58813Y32393D02*
X59813D01*
X59313Y31893D02*
Y32893D01*
X132700Y35000D02*
X133700D01*
X133200Y34500D02*
Y35500D01*
X131984Y37425D02*
X132984D01*
X132484Y36925D02*
Y37925D01*
X138100Y42597D02*
X139100D01*
X138600Y42097D02*
Y43097D01*
X134853Y46753D02*
X135853D01*
X135353Y46253D02*
Y47253D01*
X160500Y55500D02*
X161500D01*
X161000Y55000D02*
Y56000D01*
X125000Y53000D02*
X126000D01*
X125500Y52500D02*
Y53500D01*
X137000Y13000D02*
X138000D01*
X137500Y12500D02*
Y13500D01*
X134500D02*
X135500D01*
X135000Y13000D02*
Y14000D01*
X137500Y17500D02*
X138500D01*
X138000Y17000D02*
Y18000D01*
X140000Y20500D02*
X141000D01*
X140500Y20000D02*
Y21000D01*
X134500Y18000D02*
X135500D01*
X135000Y17500D02*
Y18500D01*
X141400Y35100D02*
X142400D01*
X141900Y34600D02*
Y35600D01*
X140500Y27500D02*
X141500D01*
X141000Y27000D02*
Y28000D01*
X26000Y19000D02*
X27000D01*
X26500Y18500D02*
Y19500D01*
X103000Y26500D02*
X104000D01*
X103500Y26000D02*
Y27000D01*
X83500Y62000D02*
X84500D01*
X84000Y61500D02*
Y62500D01*
X169000Y19000D02*
X170000D01*
X169500Y18500D02*
Y19500D01*
X176000Y45000D02*
X177000D01*
X176500Y44500D02*
Y45500D01*
X175000Y55000D02*
X176000D01*
X175500Y54500D02*
Y55500D01*
Y64000D02*
X176500D01*
X176000Y63500D02*
Y64500D01*
X192000Y15000D02*
X193000D01*
X192500Y14500D02*
Y15500D01*
X187500Y64999D02*
X188500D01*
X188000Y64499D02*
Y65499D01*
X190500Y24500D02*
X191500D01*
X191000Y24000D02*
Y25000D01*
X181500Y34000D02*
X182500D01*
X182000Y33500D02*
Y34500D01*
X181500Y31000D02*
X182500D01*
X182000Y30500D02*
Y31500D01*
X181500Y27500D02*
X182500D01*
X182000Y27000D02*
Y28000D01*
X181500Y24500D02*
X182500D01*
X182000Y24000D02*
Y25000D01*
X175300Y24080D02*
X176300D01*
X175800Y23580D02*
Y24580D01*
X176400Y16000D02*
X177400D01*
X176900Y15500D02*
Y16500D01*
X174467Y31153D02*
X175467D01*
X174967Y30653D02*
Y31653D01*
X185498Y24500D02*
X186498D01*
X185998Y24000D02*
Y25000D01*
X188000Y24500D02*
X189000D01*
X188500Y24000D02*
Y25000D01*
X193000Y24500D02*
X194000D01*
X193500Y24000D02*
Y25000D01*
X195500Y24500D02*
X196500D01*
X196000Y24000D02*
Y25000D01*
X198000Y24500D02*
X199000D01*
X198500Y24000D02*
Y25000D01*
X181000Y37000D02*
X182000D01*
X181500Y36500D02*
Y37500D01*
X181000Y40000D02*
X182000D01*
X181500Y39500D02*
Y40500D01*
X181000Y42500D02*
X182000D01*
X181500Y42000D02*
Y43000D01*
X181000Y45000D02*
X182000D01*
X181500Y44500D02*
Y45500D01*
X181000Y47500D02*
X182000D01*
X181500Y47000D02*
Y48000D01*
X180000Y53000D02*
X181000D01*
X180500Y52500D02*
Y53500D01*
X180000Y56500D02*
X181000D01*
X180500Y56000D02*
Y57000D01*
X182500Y56500D02*
X183500D01*
X183000Y56000D02*
Y57000D01*
X185000Y56500D02*
X186000D01*
X185500Y56000D02*
Y57000D01*
X187500Y56500D02*
X188500D01*
X188000Y56000D02*
Y57000D01*
X190000Y56500D02*
X191000D01*
X190500Y56000D02*
Y57000D01*
X192500Y56500D02*
X193500D01*
X193000Y56000D02*
Y57000D01*
X195000Y56500D02*
X196000D01*
X195500Y56000D02*
Y57000D01*
X197500Y56500D02*
X198500D01*
X198000Y56000D02*
Y57000D01*
X151000Y20500D02*
X152000D01*
X151500Y20000D02*
Y21000D01*
X154000Y15500D02*
X155000D01*
X154500Y15000D02*
Y16000D01*
X136500Y21199D02*
X137500D01*
X137000Y20699D02*
Y21699D01*
X3000Y18500D02*
X4000D01*
X3500Y18000D02*
Y19000D01*
X12000Y19500D02*
X13000D01*
X12500Y19000D02*
Y20000D01*
X11000Y45500D02*
X12000D01*
X11500Y45000D02*
Y46000D01*
X9500Y54000D02*
X10500D01*
X10000Y53500D02*
Y54500D01*
X7000Y34000D02*
X8000D01*
X7500Y33500D02*
Y34500D01*
X5500Y65000D02*
X6500D01*
X6000Y64500D02*
Y65500D01*
X42000Y72500D02*
X43000D01*
X42500Y72000D02*
Y73000D01*
X29000Y72500D02*
X30000D01*
X29500Y72000D02*
Y73000D01*
X89500Y71000D02*
X90500D01*
X90000Y70500D02*
Y71500D01*
X71500Y72500D02*
X72500D01*
X72000Y72000D02*
Y73000D01*
X61000Y71500D02*
X62000D01*
X61500Y71000D02*
Y72000D01*
X33000Y60000D02*
X34000D01*
X33500Y59500D02*
Y60500D01*
X27500Y59500D02*
X28500D01*
X28000Y59000D02*
Y60000D01*
X46500Y49000D02*
X47500D01*
X47000Y48500D02*
Y49500D01*
X51500Y49000D02*
X52500D01*
X52000Y48500D02*
Y49500D01*
X51500Y53500D02*
X52500D01*
X52000Y53000D02*
Y54000D01*
X46500Y53500D02*
X47500D01*
X47000Y53000D02*
Y54000D01*
X155500Y37500D02*
X156500D01*
X156000Y37000D02*
Y38000D01*
X146500Y33000D02*
X147500D01*
X147000Y32500D02*
Y33500D01*
X155500Y33000D02*
X156500D01*
X156000Y32500D02*
Y33500D01*
X155500Y42000D02*
X156500D01*
X156000Y41500D02*
Y42500D01*
X146500Y37500D02*
X147500D01*
X147000Y37000D02*
Y38000D01*
X151000Y33000D02*
X152000D01*
X151500Y32500D02*
Y33500D01*
X151000Y42000D02*
X152000D01*
X151500Y41500D02*
Y42500D01*
X151000Y37500D02*
X152000D01*
X151500Y37000D02*
Y38000D01*
X146500Y42000D02*
X147500D01*
X147000Y41500D02*
Y42500D01*
X161500Y31500D02*
X162500D01*
X162000Y31000D02*
Y32000D01*
X161011Y27389D02*
X162011D01*
X161511Y26890D02*
Y27889D01*
X140885Y48181D02*
X141885D01*
X141385Y47681D02*
Y48681D01*
X167000Y34500D02*
X168000D01*
X167500Y34000D02*
Y35000D01*
X169000Y31500D02*
X170000D01*
X169500Y31000D02*
Y32000D01*
X135000Y50500D02*
X136000D01*
X135500Y50000D02*
Y51000D01*
X-4000Y28000D02*
X-3000D01*
X-3500Y27500D02*
Y28500D01*
X22000Y11000D02*
X23000D01*
X22500Y10499D02*
Y11500D01*
X45306Y10000D02*
X46306D01*
X45806Y9500D02*
Y10500D01*
X102713Y6600D02*
X103713D01*
X103213Y6100D02*
Y7100D01*
X111000Y67470D02*
X112000D01*
X111500Y66970D02*
Y67970D01*
X164924Y20863D02*
X165924D01*
X165424Y20363D02*
Y21363D01*
X75500Y62000D02*
X76500D01*
X76000Y61500D02*
Y62500D01*
X62000Y55356D02*
X63000D01*
X62500Y54856D02*
Y55856D01*
X64100Y55356D02*
X65100D01*
X64600Y54856D02*
Y55856D01*
X146000Y-5500D02*
X147000D01*
X146500Y-6000D02*
Y-5000D01*
X157890Y19805D02*
X158890D01*
X158390Y19305D02*
Y20305D01*
X50500Y37500D02*
X51500D01*
X51000Y37000D02*
Y38000D01*
X66500Y50000D02*
X67500D01*
X67000Y49500D02*
Y50500D01*
X39520Y8812D02*
X40520D01*
X40020Y8312D02*
Y9312D01*
X133105Y48500D02*
X134105D01*
X133605Y48000D02*
Y49000D01*
X45619Y36109D02*
X46619D01*
X46119Y35609D02*
Y36609D01*
X75500Y57500D02*
X76500D01*
X76000Y57000D02*
Y58000D01*
X109000Y54500D02*
X110000D01*
X109500Y54000D02*
Y55000D01*
X112056Y55106D02*
X113056D01*
X112556Y54606D02*
Y55606D01*
X130013Y17212D02*
X131013D01*
X130513Y16712D02*
Y17712D01*
X6413Y70312D02*
X7413D01*
X6913Y69812D02*
Y70812D01*
X4737Y38000D02*
X5737D01*
X5237Y37500D02*
Y38500D01*
X61013Y14912D02*
X62013D01*
X61513Y14412D02*
Y15412D01*
X150713Y53912D02*
X151713D01*
X151213Y53412D02*
Y54412D01*
X95913Y73512D02*
X96913D01*
X96413Y73012D02*
Y74012D01*
X57313Y16412D02*
X58313D01*
X57813Y15912D02*
Y16912D01*
X33313Y29612D02*
X34313D01*
X33813Y29112D02*
Y30112D01*
X21312Y75312D02*
X22312D01*
X21812Y74812D02*
Y75812D01*
X106213Y40112D02*
X107213D01*
X106713Y39612D02*
Y40612D01*
X26313Y-5288D02*
X27313D01*
X26813Y-5788D02*
Y-4788D01*
X109963Y30712D02*
X110963D01*
X110463Y30212D02*
Y31212D01*
X152813Y53612D02*
X153813D01*
X153313Y53112D02*
Y54112D01*
X154953Y53312D02*
X155953D01*
X155453Y52812D02*
Y53812D01*
D16*
X100378Y28710D02*
G03*
X100378Y28710I-1378J0D01*
G01*
X74878Y28662D02*
G03*
X74878Y28662I-1378J0D01*
G01*
X53378Y28710D02*
G03*
X53378Y28710I-1378J0D01*
G01*
X34378D02*
G03*
X34378Y28710I-1378J0D01*
G01*
X170878Y43252D02*
G03*
X170878Y43252I-1378J0D01*
G01*
X97031Y28710D02*
X100969D01*
X99000Y26741D02*
Y30678D01*
X71531Y28661D02*
X75468D01*
X73500Y26693D02*
Y30630D01*
X52000Y26741D02*
Y30678D01*
X50032Y28710D02*
X53969D01*
X33000Y26741D02*
Y30678D01*
X31032Y28710D02*
X34969D01*
X167532Y43252D02*
X171469D01*
X169500Y41283D02*
Y45220D01*
D17*
X118000Y62000D02*
G03*
X118000Y62000I-500J0D01*
G01*
Y56500D02*
G03*
X118000Y56500I-500J0D01*
G01*
Y35000D02*
G03*
X118000Y35000I-500J0D01*
G01*
Y39500D02*
G03*
X118000Y39500I-500J0D01*
G01*
Y48000D02*
G03*
X118000Y48000I-500J0D01*
G01*
X34000Y33500D02*
G03*
X34000Y33500I-500J0D01*
G01*
Y45500D02*
G03*
X34000Y45500I-500J0D01*
G01*
X151000Y69500D02*
G03*
X151000Y69500I-500J0D01*
G01*
X1500Y14500D02*
G03*
X1500Y14500I-500J0D01*
G01*
X56500Y35000D02*
G03*
X56500Y35000I-500J0D01*
G01*
X42500D02*
G03*
X42500Y35000I-500J0D01*
G01*
X141500Y58500D02*
G03*
X141500Y58500I-500J0D01*
G01*
X160500Y69500D02*
G03*
X160500Y69500I-500J0D01*
G01*
X55000Y66000D02*
G03*
X55000Y66000I-500J0D01*
G01*
X117500Y61213D02*
Y62787D01*
X116713Y62000D02*
X118288D01*
X116713Y56500D02*
X118288D01*
X117500Y55713D02*
Y57288D01*
X116713Y35000D02*
X118288D01*
X117500Y34213D02*
Y35787D01*
X116713Y39500D02*
X118288D01*
X117500Y38713D02*
Y40288D01*
X116713Y48000D02*
X118288D01*
X117500Y47213D02*
Y48788D01*
X32713Y33500D02*
X34288D01*
X33500Y32713D02*
Y34287D01*
X32713Y45500D02*
X34288D01*
X33500Y44712D02*
Y46287D01*
X149713Y69500D02*
X151287D01*
X150500Y68713D02*
Y70287D01*
X213Y14500D02*
X1788D01*
X1000Y13713D02*
Y15287D01*
X55213Y35000D02*
X56788D01*
X56000Y34212D02*
Y35787D01*
X41213Y35000D02*
X42788D01*
X42000Y34212D02*
Y35787D01*
X140213Y58500D02*
X141788D01*
X141000Y57713D02*
Y59288D01*
X159213Y69500D02*
X160787D01*
X160000Y68713D02*
Y70287D01*
X53713Y66000D02*
X55287D01*
X54500Y65213D02*
Y66787D01*
M02*
