G04*
G04 #@! TF.GenerationSoftware,Altium Limited,Altium Designer,20.0.13 (296)*
G04*
G04 Layer_Color=255*
%FSLAX25Y25*%
%MOIN*%
G70*
G01*
G75*
%ADD18R,0.01575X0.01968*%
%ADD61C,0.11811*%
%ADD62R,0.06693X0.06693*%
%ADD63C,0.06693*%
%ADD64C,0.03937*%
%ADD65O,0.08268X0.03937*%
%ADD66O,0.06299X0.03937*%
%ADD67C,0.02559*%
%ADD69R,0.02559X0.05906*%
%ADD70R,0.07087X0.02756*%
%ADD71R,0.05512X0.04724*%
%ADD72R,0.08661X0.08000*%
%ADD73R,0.05512X0.06299*%
%ADD74O,0.05118X0.01968*%
D18*
X119272Y62000D02*
D03*
X115729Y62000D02*
D03*
X115827Y56500D02*
D03*
X119173D02*
D03*
X115827Y35000D02*
D03*
X119173D02*
D03*
X115827Y39500D02*
D03*
X119173D02*
D03*
X115827Y48000D02*
D03*
X119173D02*
D03*
D61*
X192913Y80709D02*
D03*
Y0D02*
D03*
X0D02*
D03*
Y80709D02*
D03*
D62*
X181500Y80000D02*
D03*
X181000Y500D02*
D03*
D63*
X171500Y80000D02*
D03*
X161500D02*
D03*
X151500D02*
D03*
X141500D02*
D03*
X131500D02*
D03*
X121500D02*
D03*
X111500D02*
D03*
X101500D02*
D03*
X91500D02*
D03*
X81500D02*
D03*
X71500D02*
D03*
X61500D02*
D03*
X51500D02*
D03*
X41500D02*
D03*
X31500D02*
D03*
X21500D02*
D03*
X11500D02*
D03*
X11000Y500D02*
D03*
X21000D02*
D03*
X31000D02*
D03*
X41000D02*
D03*
X51000D02*
D03*
X61000D02*
D03*
X71000D02*
D03*
X81000D02*
D03*
X91000D02*
D03*
X101000D02*
D03*
X111000D02*
D03*
X121000D02*
D03*
X131000D02*
D03*
X141000D02*
D03*
X151000D02*
D03*
X161000D02*
D03*
X171000D02*
D03*
D64*
X169500Y59000D02*
D03*
Y27504D02*
D03*
D65*
X19327Y57528D02*
D03*
Y23472D02*
D03*
D66*
X3579Y57528D02*
D03*
Y23472D02*
D03*
D67*
X17358Y29122D02*
D03*
Y51878D02*
D03*
D69*
X106500Y45048D02*
D03*
X101500D02*
D03*
X91500Y12371D02*
D03*
X96500D02*
D03*
X101500D02*
D03*
X106500D02*
D03*
X91500Y45048D02*
D03*
X96500D02*
D03*
X68500Y45000D02*
D03*
Y12323D02*
D03*
X73500D02*
D03*
X78500D02*
D03*
X73500Y45000D02*
D03*
X78500D02*
D03*
X54500Y12371D02*
D03*
X49500D02*
D03*
Y45048D02*
D03*
X54500D02*
D03*
X35500Y12371D02*
D03*
X30500D02*
D03*
Y45048D02*
D03*
X35500D02*
D03*
D70*
X127662Y52307D02*
D03*
Y65299D02*
D03*
Y60969D02*
D03*
Y56638D02*
D03*
Y47976D02*
D03*
Y43646D02*
D03*
Y39315D02*
D03*
Y34984D02*
D03*
Y30654D02*
D03*
D71*
X130130Y70417D02*
D03*
D72*
X167926D02*
D03*
Y9394D02*
D03*
D73*
X130130Y12543D02*
D03*
D74*
X18433Y48000D02*
D03*
Y43000D02*
D03*
Y38000D02*
D03*
Y33000D02*
D03*
X-2433Y48000D02*
D03*
Y43000D02*
D03*
Y38000D02*
D03*
Y33000D02*
D03*
M02*
